# xmcd
#
# Track frame offsets:
#	150
#	22068
#	34447
#	44296
#	54235
#	91170
#	103643
#	129551
#	139330
#	155891
#	179527
#
# Disc length: 2738 seconds
#
# Revision: 12
# Processed by: cddbd v1.5.2PL0 Copyright (c) Steve Scherf et al.
# Submitted via: audiograbber 1.83.01
#
DISCID=9b0ab00b
DTITLE=Genesis - The Lamb Lies Down On Broadway [remastered 2016] [CD 1)
DYEAR=1974
DGENRE=Progressive Rock
TTITLE0=The Lamb Lies Down On Broadway
TTITLE1=Fly On A Windshield
TTITLE2=Broadway Melody Of 1974
TTITLE3=Cuckoo Cocoon
TTITLE4=In The Cage
TTITLE5=The Grand Parade Of Lifeless Packaging
TTITLE6=Back In N.Y.C.
TTITLE7=Hairless Heart
TTITLE8=Counting Out Time
TTITLE9=Carpet Crawlers
TTITLE10=The Chamber Of 32 Doors
EXTD=
EXTT0=
EXTT1=
EXTT2=
EXTT3=
EXTT4=
EXTT5=
EXTT6=
EXTT7=
EXTT8=
EXTT9=
EXTT10=
PLAYORDER=
